<svg width="32" height="32" viewBox="0 0 32 32" xmlns="http://www.w3.org/2000/svg">
  <defs>
    <linearGradient id="petalGradient" x1="0%" y1="0%" x2="100%" y2="100%">
      <stop offset="0%" style="stop-color:#FFD700;stop-opacity:1" />
      <stop offset="50%" style="stop-color:#FFA500;stop-opacity:1" />
      <stop offset="100%" style="stop-color:#FF8C00;stop-opacity:1" />
    </linearGradient>
    <linearGradient id="centerGradient" x1="0%" y1="0%" x2="100%" y2="100%">
      <stop offset="0%" style="stop-color:#8B4513;stop-opacity:1" />
      <stop offset="100%" style="stop-color:#654321;stop-opacity:1" />
    </linearGradient>
  </defs>
  
  <!-- Background circle -->
  <circle cx="16" cy="16" r="15" fill="#228B22" stroke="#1F6B1F" stroke-width="1"/>
  
  <!-- Mariposa Lily petals (6 petals in a circle) -->
  <!-- Petal 1 (top) -->
  <ellipse cx="16" cy="8" rx="4" ry="8" fill="url(#petalGradient)" transform="rotate(0 16 16)"/>
  
  <!-- Petal 2 (top-right) -->
  <ellipse cx="16" cy="8" rx="4" ry="8" fill="url(#petalGradient)" transform="rotate(60 16 16)"/>
  
  <!-- Petal 3 (bottom-right) -->
  <ellipse cx="16" cy="8" rx="4" ry="8" fill="url(#petalGradient)" transform="rotate(120 16 16)"/>
  
  <!-- Petal 4 (bottom) -->
  <ellipse cx="16" cy="8" rx="4" ry="8" fill="url(#petalGradient)" transform="rotate(180 16 16)"/>
  
  <!-- Petal 5 (bottom-left) -->
  <ellipse cx="16" cy="8" rx="4" ry="8" fill="url(#petalGradient)" transform="rotate(240 16 16)"/>
  
  <!-- Petal 6 (top-left) -->
  <ellipse cx="16" cy="8" rx="4" ry="8" fill="url(#petalGradient)" transform="rotate(300 16 16)"/>
  
  <!-- Center of the flower -->
  <circle cx="16" cy="16" r="3" fill="url(#centerGradient)"/>
  
  <!-- Small dots in center for texture -->
  <circle cx="15" cy="15" r="0.5" fill="#FFD700"/>
  <circle cx="17" cy="15" r="0.5" fill="#FFD700"/>
  <circle cx="16" cy="17" r="0.5" fill="#FFD700"/>
</svg>
